<svg xmlns="http://www.w3.org/2000/svg" version="1.1" xmlns:xlink="http://www.w3.org/1999/xlink" width="512" height="512" x="0" y="0" viewBox="0 0 512 512" style="enable-background:new 0 0 512 512" xml:space="preserve" class=""><g><path d="M512 256c0 33.656-6.489 65.797-18.296 95.232 0 0-.01.01-.01.021-15.214 37.919-39.236 71.367-69.548 97.782C379.173 488.249 320.366 512 256 512c-64.387 0-123.214-23.761-168.197-63.007-30.302-26.436-54.324-59.883-69.528-97.823C6.489 321.745 0 289.625 0 256 0 114.615 114.615 0 256 0s256 114.615 256 256z" style="" fill="#1b3466" data-original="#1b3466" class=""></path><path d="M500.663 293.042c0 20.052-2.414 39.539-6.959 58.19 0 0-.01.01-.01.021-15.214 37.919-39.236 71.367-69.548 97.782C379.173 488.249 320.366 512 256 512c-64.387 0-123.214-23.761-168.197-63.007-30.302-26.436-54.324-59.883-69.528-97.823-4.545-18.631-6.949-38.097-6.949-58.128C11.327 157.915 120.874 48.368 256 48.368s244.663 109.547 244.663 244.674z" style="" fill="#fcbd00" data-original="#fcbd00" class=""></path><path d="M485.366 293.042c0 60.249-23.228 115.064-61.221 155.993C379.173 488.249 320.366 512 256 512c-64.387 0-123.214-23.761-168.197-63.007-37.972-40.929-61.179-95.723-61.179-155.951C26.624 166.369 129.317 63.676 256 63.676c126.673 0 229.366 102.693 229.366 229.366z" style="" fill="#1d2123" data-original="#1d2123" class=""></path><circle cx="256" cy="293.042" r="205.093" style="" fill="#234ea8" data-original="#234ea8" class=""></circle><circle cx="256" cy="293.042" r="152.639" style="" fill="#1d2123" data-original="#1d2123" class=""></circle><circle cx="256" cy="293.042" r="134.04" style="" fill="#234ea8" data-original="#234ea8" class=""></circle><circle cx="256" cy="293.042" r="122.128" style="" fill="#1d2123" data-original="#1d2123" class=""></circle><path d="M169.491 296.078c1.44 41.796 32.508 76.06 72.847 82.454v20.357c-52.48-6.7-93.055-51.533-93.055-105.848 0-58.764 47.073-106.236 105.837-106.707 37.576-.301 70.707 18.819 89.952 47.916l4.614.602c2.015.262 2.655 2.863.991 4.034l-1.922 1.352-16.585 11.652-2.113 1.484c-1.763 1.242-4.122-.362-3.618-2.458l1.462-6.081c-15.611-23.246-42.207-38.507-72.355-38.353-49.021.246-87.747 40.602-86.055 89.596zM349.686 350.512l-4.105.536c-16.596 25.589-43.865 43.619-75.507 47.789V378.46c24.133-3.941 44.916-17.871 57.959-37.401l-1.592-6.607c-.504-2.096 1.856-3.7 3.624-2.463l2.387 1.68 16.596 11.659 1.636 1.149c1.662 1.173 1.016 3.773-.998 4.035z" style="" fill="#fcbd00" data-original="#fcbd00" class=""></path><path d="m205.335 454.028-1.654.453a2.29 2.29 0 0 1-1.319.029c-1.397-.414-1.918-2.192-1.476-3.685.299-1.011 1.019-1.847 2.152-2.139l7.499-1.972c.457-.126.967-.08 1.496.076 1.541.457 3.053 1.9 2.625 3.345l-9.07 30.636c-.457 1.541-2.563 1.755-4.442 1.2-1.879-.556-3.529-1.883-3.072-3.424l7.261-24.519zM223.355 462.665l.053-.449c1.01-8.582 6.724-11.146 13.61-10.336 6.885.811 11.898 4.638 10.888 13.219l-1.557 13.222c-1.01 8.582-6.925 11.123-14.109 10.277-8.431-.993-11.157-6.625-10.671-10.766.282-2.395 1.517-3.008 4.012-2.715 2.145.253 3.977 1.024 3.706 3.32-.223 1.895 1.655 3.128 4.001 3.405 2.943.346 4.871-.995 5.278-4.437l.529-4.491c-1.802 1.558-4.1 1.743-6.495 1.462-5.689-.669-10.185-3.728-9.245-11.711zm16.833.97c.405-3.443-1.115-5.139-3.909-5.468-2.794-.329-4.617.974-5.023 4.417l-.053.449c-.428 3.642 1.053 5.233 3.897 5.567 2.695.318 4.593-.774 4.981-4.067l.107-.898zM260.537 478.55l-1.192-13.259c-.774-8.606 4.291-12.29 11.197-12.911 6.905-.621 12.596 2.095 13.37 10.701l1.192 13.259c.774 8.606-4.342 12.294-11.246 12.915-6.905.621-12.548-2.1-13.321-10.705zm15.568-14.767c-.31-3.452-2.151-4.85-4.953-4.599-2.801.252-4.313 1.952-4.003 5.404l1.193 13.259c.31 3.452 2.1 4.855 4.903 4.604 2.802-.252 4.363-1.956 4.053-5.408l-1.193-13.26zM316.109 451.331c1.223 3.987.038 6.978-2.501 8.807 3.923.111 7.16 2.271 8.677 7.218l.177.576c2.194 7.157-2.105 11.471-8.733 13.503-6.629 2.032-12.656.886-14.851-6.272l-.177-.576c-1.517-4.948.001-8.566 3.187-10.858-3.128-.091-5.787-1.904-7.009-5.89-1.841-6.004 1.796-9.906 7.992-11.805 6.196-1.897 11.396-.706 13.238 5.297zm-13.731 5.262c.766 2.498 2.309 3.076 4.471 2.413 2.161-.662 3.116-2.007 2.35-4.505-.751-2.449-2.324-3.123-4.486-2.46-2.162.663-3.087 2.103-2.335 4.552zm11.986 11.67c-.957-3.122-2.984-4.077-5.675-3.253-2.69.824-3.881 2.767-2.924 5.889l.324 1.056c1.017 3.314 3.155 4.287 5.796 3.477 2.738-.84 3.789-2.896 2.802-6.115l-.323-1.054z" style="" fill="#ffffff" data-original="#ffffff" class=""></path><path d="m298.169 223.73 5.658 22.879c.758 3.064-3.018 5.165-5.222 2.907l-4.483-4.592a8.566 8.566 0 0 0-6.131-2.583h-17.919v-18.61h28.097v-.001zM242.486 369.84c1.401 1.401-.054 3.733-1.932 3.098l-24.559-8.363a3.122 3.122 0 0 1-2.118-2.956c0-1.785 1.462-3.125 3.12-3.125.323 0 .657.054.991.164l.269.088v-33.362l18.976 18.67v20.531l5.253 5.255zM284.901 279.066l-6.256-6.256h-41.413v32.53l-18.976-19.113v-55.929l-9.486-6.568h34.298v18.976h-6.201v10.219h34.303l1.821-3.846c.59-1.248 2.361-1.261 2.971-.022l13.243 26.933c1.334 2.72-2.159 5.221-4.304 3.076z" style="" fill="#fcbd00" data-original="#fcbd00" class=""></path><path d="m204.936 279.105 37.768 38.042v26.273l-34.118-33.572v44.884l1.611 2.385c.848 1.257-.721 2.734-1.919 1.806-5.685-4.405-14.279-11.638-21.53-20.149a3.467 3.467 0 0 1 .893-5.242l.876-.511v-49.445l-3.469-1.667c-1.414-.679-.93-2.803.638-2.803h19.25v-.001zM315.722 281.907l-3.47 1.67v63.126l.651.383c1.993 1.161 2.408 3.876.843 5.566-7.231 7.833-15.736 12.414-21.352 14.817-2.058.887-4.05-1.374-2.928-3.311l2.72-4.685V309.85l-22.113 21.758V305.05l25.759-25.945h19.25c1.571 0 2.053 2.123.64 2.802z" style="" fill="#fcbd00" data-original="#fcbd00" class=""></path><path d="m237.234 305.34-18.976-19.111M237.234 344.054l-18.976-18.673" style="stroke-miterlimit:10;" fill="none" stroke="#000000" stroke-miterlimit="10" data-original="#000000"></path><path d="m345.242 260.638 6.288 19.354h20.35l-16.463 11.961 6.288 19.354-16.463-11.962-16.464 11.962 6.288-19.354-16.463-11.961h20.35zM265.328 275.547v123.807c-3.076.269-6.185.405-9.332.405-3 0-5.972-.125-8.911-.367V275.547h18.243zM269.683 212.507a2.278 2.278 0 0 0-2.278-2.278h-22.401a2.278 2.278 0 0 0-.284 4.538l1.046.132a1.505 1.505 0 0 1 1.317 1.492v33.977h18.245v-33.977c0-.759.564-1.398 1.317-1.492l1.045-.132a2.278 2.278 0 0 0 1.993-2.26z" style="" fill="#fcbd00" data-original="#fcbd00" class=""></path><path d="M166.588 118.081c-.757-1.56.766-3.116 2.609-4.011 1.843-.894 4.008-1.126 4.766.433l14.589 30.064c.734 1.513-.743 3.164-2.586 4.058-1.843.894-4.054 1.032-4.789-.48l-14.589-30.064zM218.952 134.555l-14.288-15.036 4.554 17.276c.428 1.626-1.34 2.961-3.321 3.484-1.982.522-4.178.232-4.607-1.394l-8.504-32.265c-.442-1.677 1.339-2.961 3.32-3.484 2.845-.75 3.98-.777 6.888 2.423l12.371 13.53-4.554-17.275c-.442-1.677 1.352-2.91 3.334-3.432 1.982-.522 4.151-.333 4.593 1.344l8.518 32.316c.428 1.626-1.339 2.962-3.321 3.484-1.828.48-3.548.553-4.983-.971zM262.652 93.947c1.732-.042 2.514 1.832 2.557 3.565.049 1.996-.802 3.752-2.378 3.79l-7.249.176.693 28.525c.041 1.681-1.987 2.572-4.036 2.622-2.048.049-4.118-.741-4.159-2.422l-.693-28.525-7.25.177c-1.576.038-2.511-1.674-2.559-3.67-.043-1.733.647-3.643 2.38-3.685l22.694-.553zM289.177 113.168l7.726 1.559c1.544.311 2.119 1.982 1.787 3.63-.28 1.391-1.334 2.893-3.033 2.551l-7.726-1.558-1.766 8.756 13.803 2.785c1.545.311 2.089 2.137 1.704 4.042-.332 1.648-1.417 3.306-3.117 2.963l-18.336-3.699c-1.751-.353-3.336-1.531-3.003-3.179l6.597-32.705c.332-1.649 2.25-2.119 4.001-1.766l18.336 3.698c1.7.343 2.056 2.291 1.724 3.94-.385 1.906-1.592 3.377-3.138 3.066l-13.803-2.785-1.756 8.702zM326.368 109.214c.548-1.194 1.937-1.83 3.322-1.193l9.887 4.534c6.543 3.001 10.632 7.824 7.062 15.61-2.453 5.35-6.291 7.289-10.225 7.046l.985 13.228c.06.374-.046.73-.155.969-.854 1.863-4.258 2.73-6.455 1.723-.955-.438-1.689-1.237-1.753-2.481l-.718-15.706-3.152-1.446-5.279 11.511c-.701 1.529-2.914 1.439-4.777.584-1.863-.854-3.375-2.472-2.674-4.001l13.932-30.378zm5.501 7.668-4.074 8.884 4.728 2.168c2.675 1.227 4.803.872 6.336-2.47 1.533-3.344.413-5.187-2.262-6.414l-4.728-2.168z" style="" fill="#ffffff" data-original="#ffffff" class=""></path></g></svg>