<svg xmlns="http://www.w3.org/2000/svg" version="1.1" xmlns:xlink="http://www.w3.org/1999/xlink" width="512" height="512" x="0" y="0" viewBox="0 0 512 512" style="enable-background:new 0 0 512 512" xml:space="preserve" class=""><g><path d="M512 256c0 3.845-.084 7.68-.261 11.483-1.661 37.794-11.525 73.456-27.846 105.263-17.721 34.513-43.05 64.481-73.78 87.677l-.031.031C367.208 492.816 313.856 512 256 512s-111.208-19.184-154.081-51.545l-.031-.031c-28.891-21.807-53.008-49.601-70.51-81.533C13.092 345.548 2.016 307.692.25 267.421.084 263.638 0 259.824 0 256 0 114.615 114.615 0 256 0s256 114.615 256 256z" style="" fill="#1d2123" data-original="#1d2123" class=""></path><path d="M511.739 267.483c-1.661 37.794-11.525 73.456-27.846 105.263-17.721 34.513-43.05 64.481-73.78 87.677l-.031.031C367.208 492.816 313.856 512 256 512s-111.208-19.184-154.081-51.545l-.031-.031c-28.891-21.807-53.008-49.601-70.51-81.533C13.092 345.548 2.016 307.692.25 267.421 13.918 138.25 123.204 37.616 256 37.616c132.807 0 242.103 100.666 255.739 229.867z" style="" fill="#234ea8" data-original="#234ea8" class=""></path><path d="M496.818 294.808c0 27.282-4.545 53.499-12.925 77.939-17.721 34.513-43.05 64.481-73.78 87.677l-.031.031C367.208 492.816 313.856 512 256 512s-111.208-19.184-154.081-51.545l-.031-.031c-28.891-21.807-53.008-49.601-70.51-81.533-9.78-26.175-15.13-54.502-15.13-84.083 0-132.713 107.572-240.295 240.285-240.295 132.702-.001 240.285 107.582 240.285 240.295z" style="" fill="#ffffff" data-original="#ffffff" class=""></path><path d="M482.231 294.808c0 65.4-27.752 124.311-72.119 165.616l-.031.031C367.208 492.816 313.856 512 256 512s-111.208-19.184-154.081-51.545l-.031-.031c-44.377-41.305-72.129-100.216-72.129-165.616C29.759 169.859 131.051 68.566 256 68.566s226.231 101.293 226.231 226.242z" style="" fill="#234ea8" data-original="#234ea8" class=""></path><circle cx="256" cy="294.808" r="144.792" style="" fill="#ffffff" data-original="#ffffff" class=""></circle><path d="M388.976 294.803c0 25.922-7.417 50.113-20.254 70.571a133.84 133.84 0 0 1-42.046 42.089 128.688 128.688 0 0 1-12.465 6.926 127.505 127.505 0 0 1-11.163 4.834c-14.62 5.529-30.489 8.559-47.051 8.559-16.563 0-32.43-3.03-47.051-8.559a129.776 129.776 0 0 1-10.97-4.748 130.36 130.36 0 0 1-12.657-7.011 133.764 133.764 0 0 1-44.052-45.386c-11.6-19.742-18.248-42.729-18.248-67.274 0-69.429 53.208-126.426 121.069-132.455 3.927-.342 7.897-.522 11.91-.522 5.026 0 9.988.277 14.866.821 66.439 7.393 118.112 63.74 118.112 132.155z" style="" fill="#16529a" data-original="#16529a"></path><path d="M368.72 365.375a133.84 133.84 0 0 1-42.046 42.089 128.688 128.688 0 0 1-12.465 6.926l2.081-18.739-7.47-28.28-16.541-16.541-21.343-12.272h-25.079l-32.549 13.873-21.877 36.283 6.542 25.761a130.36 130.36 0 0 1-12.657-7.011 133.764 133.764 0 0 1-44.052-45.386c18.334-17.075 59.591-57.349 71.511-84.882 13.841-31.961 29.4-92.384 31.31-114.848 3.927-.342 7.897-.522 11.91-.522 5.026 0 9.988.277 14.866.821l-.459.897 8.004 57.093 22.944 65.097 33.081 45.354 34.289 34.287z" style="" fill="#de0029" data-original="#de0029"></path><path d="M255.997 333.584c-39.485 0-71.499 28.706-71.499 64.115 0 3.319.278 6.584.821 9.765 3.708 2.331 7.54 10.59 11.481 12.553 3.941 1.963 7.995-2.368 12.146-.793a53.107 53.107 0 0 1-6.307-25.174c0-29.464 23.894-53.358 53.358-53.358s53.358 23.894 53.358 53.358a53.104 53.104 0 0 1-6.307 25.174c5.052-1.915 12.951 1.505 17.69-.985 3.048-1.601 3.033-8.95 5.937-10.775.544-3.181.821-6.446.821-9.765 0-35.409-32.015-64.115-71.499-64.115z" style="" fill="#ffffff" data-original="#ffffff" class=""></path><path d="m274.232 157.673-.038-1.601h-6.366s-2.887 71.756 33.392 139.264h-90.45c36.279-67.508 33.392-139.264 33.392-139.264h-6.366l-.038 1.601c-3.202 139.264-102.981 201.16-102.981 201.16l5.336 14.407c29.303-19.061 50.373-43.394 65.523-68.832h100.716c15.15 25.438 36.22 49.771 65.523 68.832l5.336-14.407c.002 0-99.777-61.896-102.979-201.16z" style="" fill="#ffffff" data-original="#ffffff" class=""></path><path d="m260.623 408.989-4.626-7.295-4.627 7.295 4.627 7.294zM249.166 399.029a1.36 1.36 0 0 1-1.278-.922c-3.183-9.045-7.62-9.128-10.806-9.128-3.29 0-3.913 3.913-2.046 5.78.644.644 1.372.717 2.051.536 1.131-.301 2.099.883 1.657 1.966-.955 2.335-3.142 4.748-8.153 3.545-8.893-2.135-10.138-14.762-.534-17.786 9.008-2.836 18.015 5.749 20.42 14.31.239.856-.424 1.699-1.311 1.699zM262.827 399.029a1.36 1.36 0 0 0 1.278-.922c3.183-9.045 7.62-9.128 10.806-9.128 3.29 0 3.913 3.913 2.045 5.78-.644.644-1.372.717-2.05.536-1.131-.301-2.099.883-1.657 1.966.955 2.335 3.142 4.748 8.153 3.545 8.893-2.135 10.138-14.762.534-17.786-9.008-2.836-18.015 5.749-20.42 14.31-.239.856.424 1.699 1.311 1.699zM256.174 399.029s3.557-11.205 9.605-20.099c0 0-2.312-16.363-9.782-23.833-7.47 7.47-9.782 23.833-9.782 23.833 6.047 8.893 9.605 20.099 9.605 20.099h.354z" style="" fill="#ca9a45" data-original="#ca9a45"></path><path d="M119.152 430.378c3.165-3.042-5.353-10.805.767-16.687 3.924-3.771 8.708-1.778 11.85 1.492 1.332 1.387 4.741 5.456 2.701 7.417-.707.678-2.598 1.59-3.704.439-.905-.941-.389-2.393-2.45-4.539-1.785-1.857-3.272-1.887-4.082-1.108-2.615 2.514 5.849 10.328-.741 16.663-3.767 3.62-8.447 2.834-12.092-.958-3.292-3.426-4.383-7.913-2.658-9.571.889-.855 2.952-1.327 3.907-.333 1.182 1.23 0 3.874 2.337 6.307 1.158 1.204 2.91 2.084 4.165.878zM126.015 443.711c.068-.086.186-.179.303-.27l18.948-13.279c1.096-.754 2.763-.235 4.077.793 1.314 1.027 2.22 2.519 1.753 3.765l-8.286 21.614c-.061.137-.121.274-.189.359-.827 1.057-3.059.556-4.288-.405-.715-.559-1.108-1.234-.809-1.969l1.821-4.332-6.031-4.716-3.764 2.813c-.642.467-1.391.249-2.107-.31-1.228-.961-2.254-3.006-1.428-4.063zm15.069 2.108 3.902-9.291-8.076 6.029 4.174 3.262zM162.326 442.498c.626-1.021 2.098-.715 3.304.025 1.207.74 2.148 1.912 1.521 2.933l-12.06 19.673c-.606.99-2.116.745-3.324.005-1.206-.74-2.11-1.974-1.503-2.963l12.062-19.673zM176.258 476.287l-1.006-14.284-5.162 11.201c-.486 1.054-2.014.99-3.299.397-1.284-.592-2.326-1.712-1.84-2.766l9.641-20.919c.501-1.088 2.014-.99 3.298-.397 1.845.851 2.461 1.334 2.605 4.315l.645 12.64 5.162-11.201c.502-1.088 1.999-.957 3.284-.365 1.285.591 2.357 1.645 1.856 2.732l-9.657 20.952c-.485 1.053-2.012.99-3.298.397-1.187-.544-2.134-1.261-2.229-2.702zM214.925 463.253c1.149.336 1.271 1.732.935 2.883-.388 1.324-1.316 2.301-2.36 1.995l-4.808-1.405-5.53 18.916c-.326 1.115-1.847 1.274-3.206.877-1.358-.397-2.555-1.352-2.229-2.466l5.531-18.915-4.808-1.405c-1.045-.306-1.302-1.628-.914-2.953.335-1.149 1.19-2.261 2.34-1.925l15.049 4.398zM219.606 480.026l9.3 1.578c.859.146 1.548 1.293 1.329 2.58-.23 1.359-1.24 2.109-2.099 1.962l-9.301-1.578c-1.001-.17-1.53-1.18-1.299-2.539.219-1.286 1.069-2.172 2.07-2.003zM249.092 472.795c-2.066-.08-3.307 1.033-3.403 3.498l-.374 9.606c-.096 2.465 1.055 3.671 3.085 3.75 2.03.079 3.308-1.032 3.403-3.497l.048-1.232-2.139-.084c-1.087-.043-1.662-1.118-1.62-2.241.042-1.051.701-2.151 1.789-2.109l6.09.237c1.087.043 1.671.9 1.634 1.843l-.148 3.806c-.242 6.234-4.248 8.401-9.25 8.207-5.002-.195-8.791-2.666-8.547-8.9l.374-9.606c.243-6.234 4.285-8.4 9.033-8.215 5.184.203 8.997 2.964 8.818 7.568-.085 2.174-1.011 2.647-2.932 2.573-1.522-.06-2.775-.508-2.762-1.814.015-1.307-.017-3.268-3.099-3.39zM272.471 478.31l5.414-.553c1.083-.11 1.803.875 1.922 2.029.099.975-.288 2.181-1.479 2.303l-5.415.553.625 6.136 9.675-.987c1.083-.11 1.814.983 1.951 2.318.118 1.156-.259 2.47-1.449 2.591l-12.851 1.311c-1.227.125-2.514-.327-2.631-1.483l-2.339-22.922c-.118-1.156 1.05-1.858 2.278-1.982l12.851-1.311c1.191-.121 1.824 1.091 1.943 2.245.136 1.335-.359 2.554-1.443 2.663l-9.675.986.623 6.103zM289.801 466.586c-.217-.881.259-1.821 1.28-2.074l7.291-1.808c4.825-1.195 9.109-.351 10.533 5.39.978 3.944-.259 6.643-2.49 8.206l6.227 6.719a1.2 1.2 0 0 1 .333.59c.34 1.374-1.124 3.307-2.745 3.709-.704.174-1.443.059-2.015-.586l-7.147-8.172-2.324.577 2.104 8.489c.279 1.127-.956 2.031-2.329 2.372-1.373.34-2.887.117-3.166-1.009l-5.552-22.403zm6.273 1.773 1.624 6.55 3.487-.864c1.972-.489 2.969-1.596 2.358-4.062-.611-2.465-2.009-2.979-3.982-2.49l-3.487.866zM332.292 469.171c-.121.918-.69 1.437-1.325 1.706-.601.256-1.321.325-2.048-.274l-5.64-4.463 5.461 12.857c.455 1.069-.621 2.156-1.925 2.709-1.302.554-2.832.573-3.285-.496l-8.582-20.204c-.808-1.903.197-3.158 1.498-3.711 1.87-.794 2.757-.934 5.148.889l5.992 4.549.886-7.472c.348-2.986 1.065-3.527 2.935-4.321 1.336-.568 2.903-.405 3.711 1.497l8.582 20.204c.453 1.068-.622 2.156-1.925 2.708-1.302.554-2.832.573-3.286-.496l-5.32-12.522-.877 6.84zM352.403 467.394a1.736 1.736 0 0 1-.151-.377l-6.099-22.323c-.34-1.287.712-2.68 2.125-3.57 1.411-.89 3.122-1.239 4.137-.378l17.547 15.104c.109.103.216.207.275.299.716 1.136-.511 3.067-1.831 3.9-.767.484-1.535.625-2.126.097l-3.464-3.179-6.476 4.085 1.376 4.495c.222.761-.236 1.393-1.003 1.877-1.321.831-3.593 1.106-4.31-.03zm7.076-13.472-7.427-6.814 2.948 9.639 4.479-2.825zM363.559 432.771c-.752-.932.031-2.215 1.132-3.104 1.101-.888 2.522-1.381 3.275-.449l14.489 17.963c.728.904-.008 2.243-1.11 3.133-1.1.888-2.567 1.325-3.297.421l-14.489-17.964zM400.061 430.943l-13.8-3.822 8.835 8.608c.832.81.259 2.229-.727 3.242-.986 1.012-2.39 1.622-3.222.811l-16.5-16.076c-.858-.836-.259-2.229.727-3.242 1.418-1.454 2.08-1.875 4.939-1.014l12.129 3.613-8.835-8.608c-.858-.835-.233-2.203.753-3.216.988-1.014 2.34-1.672 3.196-.837l16.526 16.102c.831.81.259 2.229-.727 3.242-.912.936-1.903 1.59-3.294 1.197zM105.947 145.873c-1.45-1.586-1.267-4.316.952-6.347l13.131-12.009c8.374-7.657 18.568-9.757 28.315.899l.289.318c9.747 10.657 6.609 20.983-2.145 28.99l-6.28 5.743 12.53 13.702c1.857 2.03.31 5.308-2.164 7.57-2.473 2.262-5.875 3.511-7.732 1.481l-36.896-40.347zm15.059-3.403 12.241 13.384 6.28-5.744c3.553-3.248 3.853-7.251-.092-11.564l-.638-.698c-3.946-4.313-7.959-4.371-11.511-1.123l-6.28 5.745zM181.322 151.087c-.091-.242-.13-.594-.169-.947l-3.316-54.727c-.164-3.149 2.952-5.869 6.658-7.25 3.705-1.38 7.841-1.36 9.778 1.13l33.368 43.535c.201.293.401.585.491.825 1.111 2.981-2.672 6.867-6.137 8.158-2.014.75-3.866.706-4.979-.807l-6.49-9.05-16.999 6.331 1.01 11.091c.146 1.872-1.225 3.117-3.238 3.867-3.464 1.29-8.866.824-9.977-2.156zm22.946-27.811-13.922-19.403 2.16 23.783 11.762-4.38zM246.763 79.009c.121-2.146 1.86-3.941 4.349-3.799l17.767 1.011c11.758.67 20.865 5.58 20.067 19.569-.548 9.614-5.236 14.856-11.377 16.832l9.392 19.565c.315.535.366 1.14.342 1.569-.191 3.347-4.859 6.699-8.807 6.473-1.717-.097-3.308-.877-4.149-2.733l-10.459-23.501-5.664-.323-1.178 20.686c-.157 2.747-3.582 3.93-6.929 3.74-3.348-.191-6.616-1.754-6.461-4.501l3.107-54.588zm12.954 8.401-.909 15.964 8.497.485c4.807.274 7.838-1.535 8.179-7.543.342-6.007-2.464-8.148-7.27-8.422l-8.497-.484zM323.105 91.326c1.037-2.641 4.596-2.537 7.718-1.311 3.122 1.224 5.803 3.568 4.767 6.21l-19.968 50.897c-1.004 2.561-4.628 2.616-7.75 1.393-3.121-1.225-5.74-3.729-4.734-6.29l19.967-50.899zM361.499 161.79c6.544-8.085-15.773-23.83-3.116-39.466 8.114-10.024 19.95-6.746 28.303.015 3.541 2.868 12.755 11.433 8.537 16.644-1.46 1.805-5.638 4.506-8.578 2.126-2.405-1.947-1.62-5.515-7.098-9.951-4.745-3.84-8.252-3.471-9.929-1.4-5.409 6.682 16.801 22.56 3.169 39.398-7.79 9.622-19.024 9.155-28.713 1.311-8.753-7.087-12.642-17.313-9.072-21.722 1.839-2.272 6.548-3.99 9.087-1.934 3.141 2.542 1.142 9.108 7.356 14.14 3.075 2.49 7.458 4.046 10.054.839z" style="" fill="#ffffff" data-original="#ffffff" class=""></path></g></svg>